<svg xmlns="http://www.w3.org/2000/svg" viewBox="0 0 64 64" role="img" aria-label="Prisma Locale">
  <defs>
    <linearGradient id="pinGrad" x1="10" y1="10" x2="50" y2="56" gradientUnits="userSpaceOnUse">
      <stop offset="0" stop-color="#2E9BF0"/>
      <stop offset="0.5" stop-color="#2563EB"/>
      <stop offset="1" stop-color="#1740B5"/>
    </linearGradient>
  </defs>

  <rect width="64" height="64" rx="14" fill="#070C18"/>

  <!-- Il pin del logo, disegnato come anello (regola evenodd) -->
  <path fill="url(#pinGrad)" fill-rule="evenodd" d="
    M30 9 a18.5 18.5 0 0 0 -18.5 18.5 c0 10.6 12.4 20.8 18.5 26.5
      c6.1 -5.7 18.5 -15.9 18.5 -26.5 A18.5 18.5 0 0 0 30 9 Z
    M30 16.4 a11.1 11.1 0 0 0 -11.1 11.1 c0 6.6 7.3 13.7 11.1 17.3
      c3.8 -3.6 11.1 -10.7 11.1 -17.3 A11.1 11.1 0 0 0 30 16.4 Z"/>

  <!-- Le barre di crescita -->

  <!-- La freccia attraversa l'anello: prima lo stacco sul fondo, poi la freccia -->
  <g stroke="#070C18" fill="#070C18" stroke-linejoin="round" stroke-linecap="round">
    <path d="M36.5 26.5 L42.5 20.5" stroke-width="6.5" fill="none"/>
    <path d="M47 15 L44.9 22.8 L39.2 17.1 Z" stroke-width="4.5"/>
  </g>
  <rect x="22.8" y="30.8" width="4" height="8" rx="1.2" fill="#2E9BF0"/>
  <rect x="28.1" y="26.2" width="4" height="12.6" rx="1.2" fill="#14C9A0"/>
  <rect x="33.4" y="22.2" width="4" height="16.6" rx="1.2" fill="#5B9DF9"/>
  <path d="M28 35 L42 21" stroke="#3B82F6" stroke-width="3" stroke-linecap="round" fill="none"/>
  <path d="M47 15 L44.9 22.8 L39.2 17.1 Z" fill="#3B82F6"/>
</svg>
